<svg width="303" height="302" xmlns="http://www.w3.org/2000/svg" xmlns:xlink="http://www.w3.org/1999/xlink" xml:space="preserve" overflow="hidden"><defs><clipPath id="clip0"><rect x="137" y="90" width="303" height="302"/></clipPath></defs><g clip-path="url(#clip0)" transform="translate(-137 -90)"><path d="M289.417 276.833 37.75 276.833C30.8005 276.833 25.1667 271.2 25.1667 264.25L25.1667 12.5833C25.1667 5.63375 19.5329-2.79407e-15 12.5833-2.79407e-15 5.63375-5.58812e-15-1.39703e-15 5.63375-1.39703e-15 12.5833L0 264.25C-5.58812e-15 285.099 16.9013 302 37.75 302L289.417 302C296.366 302 302 296.366 302 289.417 302 282.467 296.366 276.833 289.417 276.833Z" fill="#FFFFFF" transform="matrix(1.00331 0 0 1 137 90)"/><path d="M188.75 251.667C195.7 251.667 201.333 246.033 201.333 239.083L201.333 151C201.333 144.05 195.7 138.417 188.75 138.417 181.8 138.417 176.167 144.05 176.167 151L176.167 239.083C176.167 246.033 181.8 251.667 188.75 251.667Z" fill="#FFFFFF" transform="matrix(1.00331 0 0 1 137 90)"/><path d="M88.0833 251.667C95.0329 251.667 100.667 246.033 100.667 239.083L100.667 151C100.667 144.05 95.0329 138.417 88.0833 138.417 81.1338 138.417 75.5 144.05 75.5 151L75.5 239.083C75.5 246.033 81.1338 251.667 88.0833 251.667Z" fill="#FFFFFF" transform="matrix(1.00331 0 0 1 137 90)"/><path d="M239.083 251.667C246.033 251.667 251.667 246.033 251.667 239.083L251.667 88.0833C251.667 81.1338 246.033 75.5 239.083 75.5 232.134 75.5 226.5 81.1338 226.5 88.0833L226.5 239.083C226.5 246.033 232.134 251.667 239.083 251.667Z" fill="#FFFFFF" transform="matrix(1.00331 0 0 1 137 90)"/><path d="M138.417 251.667C145.366 251.667 151 246.033 151 239.083L151 88.0833C151 81.1338 145.366 75.5 138.417 75.5 131.467 75.5 125.833 81.1338 125.833 88.0833L125.833 239.083C125.833 246.033 131.467 251.667 138.417 251.667Z" fill="#FFFFFF" transform="matrix(1.00331 0 0 1 137 90)"/></g></svg>