<svg width="512" height="512" xmlns="http://www.w3.org/2000/svg" xmlns:xlink="http://www.w3.org/1999/xlink" xml:space="preserve" overflow="hidden"><defs><clipPath id="clip0"><rect x="384" y="104" width="512" height="512"/></clipPath></defs><g clip-path="url(#clip0)" transform="translate(-384 -104)"><path d="M877.248 297.472 715.435 135.637C673.737 94.0622 606.263 94.0622 564.565 135.637L402.752 297.472C390.705 309.442 383.952 325.737 384 342.72L384 552.149C384 587.497 412.654 616.149 448 616.149L832 616.149C867.347 616.149 896 587.497 896 552.149L896 342.72C896.049 325.737 889.295 309.442 877.248 297.472ZM704 573.483 576 573.483 576 489.557C576 454.21 604.653 425.557 640 425.557 675.347 425.557 704 454.21 704 489.557ZM853.333 552.149C853.333 563.932 843.782 573.483 832 573.483L746.667 573.483 746.667 489.557C746.667 430.647 698.91 382.891 640 382.891 581.09 382.891 533.333 430.647 533.333 489.557L533.333 573.483 448 573.483C436.218 573.483 426.667 563.932 426.667 552.149L426.667 342.72C426.687 337.067 428.932 331.648 432.917 327.637L594.731 165.867C619.765 140.948 660.235 140.948 685.269 165.867L847.083 327.701C851.053 331.695 853.297 337.088 853.333 342.72Z" fill="#FFFFFF"/></g></svg>