<svg width="512" height="512" xmlns="http://www.w3.org/2000/svg" xmlns:xlink="http://www.w3.org/1999/xlink" xml:space="preserve" overflow="hidden"><g transform="translate(-312 -218)"><path d="M568 474C638.692 474 696 416.693 696 346 696 275.308 638.692 218 568 218 497.308 218 440 275.308 440 346 440.071 416.663 497.337 473.93 568 474ZM568 260.667C615.127 260.667 653.333 298.872 653.333 346 653.333 393.128 615.127 431.333 568 431.333 520.872 431.333 482.667 393.128 482.667 346 482.667 298.872 520.872 260.667 568 260.667Z" fill="#FFFFFF"/><path d="M568 516.667C462.01 516.784 376.118 602.676 376 708.667 376 720.449 385.551 730 397.333 730 409.115 730 418.667 720.449 418.667 708.667 418.667 626.192 485.526 559.333 568 559.333 650.475 559.333 717.333 626.192 717.333 708.667 717.333 720.449 726.884 730 738.667 730 750.449 730 760 720.449 760 708.667 759.883 602.676 673.99 516.784 568 516.667Z" fill="#FFFFFF"/></g></svg>