<svg width="512" height="512" xmlns="http://www.w3.org/2000/svg" xmlns:xlink="http://www.w3.org/1999/xlink" xml:space="preserve" overflow="hidden"><g transform="translate(-259 25)"><path d="M408.333 103 749.667 103C761.449 103 771 93.4486 771 81.6667 771 69.8847 761.449 60.3333 749.667 60.3333L408.333 60.3333C396.551 60.3333 387 69.8847 387 81.6667 387 93.4486 396.551 103 408.333 103Z" fill="#FFFFFF"/><path d="M749.667 209.667 408.333 209.667C396.551 209.667 387 219.218 387 231 387 242.782 396.551 252.333 408.333 252.333L749.667 252.333C761.449 252.333 771 242.782 771 231 771 219.218 761.449 209.667 749.667 209.667Z" fill="#FFFFFF"/><path d="M749.667 359 408.333 359C396.551 359 387 368.551 387 380.333 387 392.116 396.551 401.667 408.333 401.667L749.667 401.667C761.449 401.667 771 392.116 771 380.333 771 368.551 761.449 359 749.667 359Z" fill="#FFFFFF"/><path d="M344.333 81.6667C344.333 105.231 325.231 124.333 301.667 124.333 278.103 124.333 259 105.231 259 81.6667 259 58.1025 278.103 39 301.667 39 325.231 39 344.333 58.1025 344.333 81.6667Z" fill="#FFFFFF"/><path d="M344.333 231C344.333 254.564 325.231 273.667 301.667 273.667 278.103 273.667 259 254.564 259 231 259 207.436 278.103 188.333 301.667 188.333 325.231 188.333 344.333 207.436 344.333 231Z" fill="#FFFFFF"/><path d="M344.333 380.333C344.333 403.898 325.231 423 301.667 423 278.103 423 259 403.898 259 380.333 259 356.769 278.103 337.667 301.667 337.667 325.231 337.667 344.333 356.769 344.333 380.333Z" fill="#FFFFFF"/></g></svg>