<svg width="512" height="512" xmlns="http://www.w3.org/2000/svg" xmlns:xlink="http://www.w3.org/1999/xlink" xml:space="preserve" overflow="hidden"><g transform="translate(-771 -135)"><path d="M1027 476.333C979.872 476.333 941.667 438.127 941.667 391 941.667 343.872 979.872 305.667 1027 305.667 1074.13 305.667 1112.33 343.872 1112.33 391 1112.33 438.127 1074.13 476.333 1027 476.333ZM1027 348.333C1003.44 348.333 984.333 367.435 984.333 391 984.333 414.565 1003.44 433.667 1027 433.667 1050.56 433.667 1069.67 414.565 1069.67 391 1069.67 367.435 1050.56 348.333 1027 348.333ZM1155 625.667C1155 554.974 1097.69 497.667 1027 497.667 956.307 497.667 899 554.974 899 625.667 899 637.449 908.551 647 920.333 647 932.115 647 941.667 637.449 941.667 625.667 941.667 578.539 979.872 540.333 1027 540.333 1074.13 540.333 1112.33 578.539 1112.33 625.667 1112.33 637.449 1121.88 647 1133.67 647 1145.45 647 1155 637.449 1155 625.667ZM1155 305.667C1107.87 305.667 1069.67 267.462 1069.67 220.333 1069.67 173.205 1107.87 135 1155 135 1202.13 135 1240.33 173.205 1240.33 220.333 1240.33 267.462 1202.13 305.667 1155 305.667ZM1155 177.667C1131.44 177.667 1112.33 196.769 1112.33 220.333 1112.33 243.897 1131.44 263 1155 263 1178.56 263 1197.67 243.897 1197.67 220.333 1197.67 196.769 1178.56 177.667 1155 177.667ZM1283 455C1282.93 384.338 1225.66 327.071 1155 327 1143.22 327 1133.67 336.551 1133.67 348.333 1133.67 360.116 1143.22 369.667 1155 369.667 1202.13 369.667 1240.33 407.873 1240.33 455 1240.33 466.782 1249.88 476.333 1261.67 476.333 1273.45 476.333 1283 466.782 1283 455ZM899 305.667C851.872 305.667 813.667 267.462 813.667 220.333 813.667 173.205 851.872 135 899 135 946.128 135 984.333 173.205 984.333 220.333 984.333 267.462 946.128 305.667 899 305.667ZM899 177.667C875.436 177.667 856.333 196.769 856.333 220.333 856.333 243.897 875.436 263 899 263 922.564 263 941.667 243.897 941.667 220.333 941.667 196.769 922.564 177.667 899 177.667ZM813.667 455C813.667 407.873 851.872 369.667 899 369.667 910.782 369.667 920.333 360.116 920.333 348.333 920.333 336.551 910.782 327 899 327 828.337 327.071 771.071 384.338 771 455 771 466.782 780.551 476.333 792.333 476.333 804.115 476.333 813.667 466.782 813.667 455Z" fill="#FFFFFF"/></g></svg>